<?xml version="1.0" encoding="UTF-8"?>
<!DOCTYPE svg PUBLIC "-//W3C//DTD SVG 1.1//EN" "http://www.w3.org/Graphics/SVG/1.1/DTD/svg11.dtd"><!-- Generated by graphviz version 2.34.0 (20130907.0111)
 -->
<!-- Title: G Pages: 1 -->
<svg xmlns="http://www.w3.org/2000/svg" xmlns:xlink="http://www.w3.org/1999/xlink" width="3274pt" height="72000pt" viewBox="0.00 0.00 3273.54 72000.00" preserveAspectRatio="xMidYMid meet" zoomAndPan="magnify" version="1.1" contentScriptType="application/ecmascript" contentStyleType="text/css"><g id="graph0" class="graph" transform="scale(0.89637 0.89637) rotate(0) translate(4 80320)"><title>G</title><polygon fill="white" stroke="white" points="-4,4 -4,-80320 3648,-80320 3648,4 -4,4"/>
<!-- BatchProgram__MIPCDR58__MIPCDR58 -->
<g id="node3" class="node" ng-click="svgclick($event, 3)"><title>BatchProgram__MIPCDR58__MIPCDR58</title><polygon fill="lightgrey" stroke="black" points="1962,-31378 1700,-31378 1700,-31342 1962,-31342 1962,-31378"/><text text-anchor="middle" x="1831" y="-31356.3" font-family="Times New Roman,serif" font-size="14.00">BatchProgram__MIPCDR58__MIPCDR58</text></g>
<!-- BatchProgram__MIPCDR77__MIPCDR77 -->
<g id="node1814" class="node" ng-click="svgclick($event, 3)"><title>BatchProgram__MIPCDR77__MIPCDR77</title><polygon fill="lightgrey" stroke="black" points="2812,-29764 2550,-29764 2550,-29728 2812,-29728 2812,-29764"/><text text-anchor="middle" x="2681" y="-29742.3" font-family="Times New Roman,serif" font-size="14.00">BatchProgram__MIPCDR77__MIPCDR77</text></g>
<!-- BatchProgram__MIPCDR58__MIPCDR58&#45;&gt;BatchProgram__MIPCDR77__MIPCDR77 -->
<g id="edge2089" class="edge"><title>BatchProgram__MIPCDR58__MIPCDR58-&gt;BatchProgram__MIPCDR77__MIPCDR77</title><path fill="none" stroke="black" d="M1962.28,-31342C1965.75,-31339.3 1969.01,-31336.3 1972,-31333 2213.37,-31065.8 1850.3,-29962 2116,-29719 2182.27,-29658.4 2442.6,-29698.4 2585.25,-29726"/><polygon fill="black" stroke="black" points="2584.83,-29729.5 2595.31,-29728 2586.17,-29722.6 2584.83,-29729.5"/></g>
<!-- BatchProgram__MIPCDR55__MIPCDR55 -->
<g id="node1844" class="node" ng-click="svgclick($event, 3)"><title>BatchProgram__MIPCDR55__MIPCDR55</title><polygon fill="lightgrey" stroke="black" points="2387,-30018 2125,-30018 2125,-29982 2387,-29982 2387,-30018"/><text text-anchor="middle" x="2256" y="-29996.3" font-family="Times New Roman,serif" font-size="14.00">BatchProgram__MIPCDR55__MIPCDR55</text></g>
<!-- BatchProgram__MIPCDR58__MIPCDR58&#45;&gt;BatchProgram__MIPCDR55__MIPCDR55 -->
<g id="edge2086" class="edge"><title>BatchProgram__MIPCDR58__MIPCDR58-&gt;BatchProgram__MIPCDR55__MIPCDR55</title><path fill="none" stroke="black" d="M1962.14,-31341.8C1965.66,-31339.2 1968.96,-31336.3 1972,-31333 2153.92,-31137.8 2000.13,-30381.3 2116,-30141 2139.74,-30091.8 2187.62,-30049.3 2220.49,-30024.2"/><polygon fill="black" stroke="black" points="2222.6,-30027 2228.5,-30018.2 2218.4,-30021.4 2222.6,-30027"/></g>
<!-- BatchProgram__MIPCDR59__MIPCDR59 -->
<g id="node2195" class="node" ng-click="svgclick($event, 3)"><title>BatchProgram__MIPCDR59__MIPCDR59</title><polygon fill="lightgrey" stroke="black" points="2387,-29964 2125,-29964 2125,-29928 2387,-29928 2387,-29964"/><text text-anchor="middle" x="2256" y="-29942.3" font-family="Times New Roman,serif" font-size="14.00">BatchProgram__MIPCDR59__MIPCDR59</text></g>
<!-- BatchProgram__MIPCDR58__MIPCDR58&#45;&gt;BatchProgram__MIPCDR59__MIPCDR59 -->
<g id="edge2087" class="edge"><title>BatchProgram__MIPCDR58__MIPCDR58-&gt;BatchProgram__MIPCDR59__MIPCDR59</title><path fill="none" stroke="black" d="M1962.21,-31341.9C1965.7,-31339.2 1968.99,-31336.3 1972,-31333 2383.14,-30885.3 1705.16,-30420.9 2116,-29973 2116.65,-29972.3 2117.32,-29971.6 2118,-29970.9"/><polygon fill="black" stroke="black" points="2120.49,-29973.4 2125.72,-29964.2 2115.89,-29968.1 2120.49,-29973.4"/></g>
<!-- BatchProgram__MIIMDUR4__MIIMDUR4 -->
<g id="node2303" class="node" ng-click="svgclick($event, 3)"><title>BatchProgram__MIIMDUR4__MIIMDUR4</title><polygon fill="lightgrey" stroke="black" points="2388.5,-30278 2123.5,-30278 2123.5,-30242 2388.5,-30242 2388.5,-30278"/><text text-anchor="middle" x="2256" y="-30256.3" font-family="Times New Roman,serif" font-size="14.00">BatchProgram__MIIMDUR4__MIIMDUR4</text></g>
<!-- BatchProgram__MIPCDR58__MIPCDR58&#45;&gt;BatchProgram__MIIMDUR4__MIIMDUR4 -->
<g id="edge2088" class="edge"><title>BatchProgram__MIPCDR58__MIPCDR58-&gt;BatchProgram__MIIMDUR4__MIIMDUR4</title><path fill="none" stroke="black" d="M1961.78,-31342C1965.42,-31339.3 1968.85,-31336.3 1972,-31333 2294.8,-30992.4 1793.43,-30627.8 2116,-30287 2116.78,-30286.2 2117.58,-30285.4 2118.4,-30284.6"/><polygon fill="black" stroke="black" points="2120.74,-30287.2 2126.14,-30278.1 2116.24,-30281.8 2120.74,-30287.2"/></g>
<!-- BatchProgram__V0320370__V0320370 -->
<g id="node4" class="node" ng-click="svgclick($event, 3)"><title>BatchProgram__V0320370__V0320370</title><polygon fill="lightgrey" stroke="black" points="2376.5,-38262 2135.5,-38262 2135.5,-38226 2376.5,-38226 2376.5,-38262"/><text text-anchor="middle" x="2256" y="-38240.3" font-family="Times New Roman,serif" font-size="14.00">BatchProgram__V0320370__V0320370</text></g>
<!-- BatchProgram__MISQAD85__MISQAD85 -->
<g id="node1392" class="node" ng-click="svgclick($event, 3)"><title>BatchProgram__MISQAD85__MISQAD85</title><polygon fill="lightgrey" stroke="black" points="2812.5,-39288 2549.5,-39288 2549.5,-39252 2812.5,-39252 2812.5,-39288"/><text text-anchor="middle" x="2681" y="-39266.3" font-family="Times New Roman,serif" font-size="14.00">BatchProgram__MISQAD85__MISQAD85</text></g>
<!-- BatchProgram__V0320370__V0320370&#45;&gt;BatchProgram__MISQAD85__MISQAD85 -->
<g id="edge4289" class="edge"><title>BatchProgram__V0320370__V0320370-&gt;BatchProgram__MISQAD85__MISQAD85</title><path fill="none" stroke="black" d="M2376.72,-38257.6C2383.69,-38261.3 2390.21,-38265.7 2396,-38271 2547.43,-38410.1 2654.43,-39094.1 2676,-39241.8"/><polygon fill="black" stroke="black" points="2672.56,-39242.5 2677.45,-39251.9 2679.49,-39241.5 2672.56,-39242.5"/></g>
<!-- BatchProgram__IPPN1010__IPPN1010 -->
<g id="node5" class="node" ng-click="svgclick($event, 3)"><title>BatchProgram__IPPN1010__IPPN1010</title><polygon fill="lightgrey" stroke="black" points="2377,-42660 2135,-42660 2135,-42624 2377,-42624 2377,-42660"/><text text-anchor="middle" x="2256" y="-42638.3" font-family="Times New Roman,serif" font-size="14.00">BatchProgram__IPPN1010__IPPN1010</text></g>
<!-- BatchProgram__PDEB0041__PDEB0041 -->
<g id="node6" class="node" ng-click="svgclick($event, 3)"><title>BatchProgram__PDEB0041__PDEB0041</title><polygon fill="lightgrey" stroke="black" points="1956.5,-49362 1705.5,-49362 1705.5,-49326 1956.5,-49326 1956.5,-49362"/><text text-anchor="middle" x="1831" y="-49340.3" font-family="Times New Roman,serif" font-size="14.00">BatchProgram__PDEB0041__PDEB0041</text></g>
<!-- BatchProgram__PDES0005__PDES0005 -->
<g id="node1022" class="node" ng-click="svgclick($event, 3)"><title>BatchProgram__PDES0005__PDES0005</title><polygon fill="lightgrey" stroke="black" points="2381,-41832 2131,-41832 2131,-41796 2381,-41796 2381,-41832"/><text text-anchor="middle" x="2256" y="-41810.3" font-family="Times New Roman,serif" font-size="14.00">BatchProgram__PDES0005__PDES0005</text></g>
<!-- BatchProgram__PDEB0041__PDEB0041&#45;&gt;BatchProgram__PDES0005__PDES0005 -->
<g id="edge3753" class="edge"><title>BatchProgram__PDEB0041__PDEB0041-&gt;BatchProgram__PDES0005__PDES0005</title><path fill="none" stroke="black" d="M1956.72,-49330.5C1962.37,-49326.8 1967.54,-49322.3 1972,-49317 2239.54,-48999.2 1848.67,-42159 2116,-41841 2118.04,-41838.6 2120.23,-41836.3 2122.54,-41834.2"/><polygon fill="black" stroke="black" points="2125.12,-41836.7 2130.87,-41827.8 2120.82,-41831.1 2125.12,-41836.7"/></g>
<!-- BatchProgram__MIPCLM57__MIPCLM57 -->
<g id="node7" class="node" ng-click="svgclick($event, 3)"><title>BatchProgram__MIPCLM57__MIPCLM57</title><polygon fill="lightgrey" stroke="black" points="1962.5,-45640 1699.5,-45640 1699.5,-45604 1962.5,-45604 1962.5,-45640"/><text text-anchor="middle" x="1831" y="-45618.3" font-family="Times New Roman,serif" font-size="14.00">BatchProgram__MIPCLM57__MIPCLM57</text></g>
<!-- BatchProgram__P0678001__P0678001 -->
<g id="node9" class="node" ng-click="svgclick($event, 3)"><title>BatchProgram__P0678001__P0678001</title><polygon fill="lightgrey" stroke="black" points="1950,-9462 1712,-9462 1712,-9426 1950,-9426 1950,-9462"/><text text-anchor="middle" x="1831" y="-9440.3" font-family="Times New Roman,serif" font-size="14.00">BatchProgram__P0678001__P0678001</text></g>
<!-- BatchProgram__MIPCPHA1__MIPCPHA1 -->
<g id="node2185" class="node" ng-click="svgclick($event, 3)"><title>BatchProgram__MIPCPHA1__MIPCPHA1</title><polygon fill="lightgrey" stroke="black" points="2388.5,-8202 2123.5,-8202 2123.5,-8166 2388.5,-8166 2388.5,-8202"/><text text-anchor="middle" x="2256" y="-8180.3" font-family="Times New Roman,serif" font-size="14.00">BatchProgram__MIPCPHA1__MIPCPHA1</text></g>
<!-- BatchProgram__P0678001__P0678001&#45;&gt;BatchProgram__MIPCPHA1__MIPCPHA1 -->
<g id="edge3729" class="edge"><title>BatchProgram__P0678001__P0678001-&gt;BatchProgram__MIPCPHA1__MIPCPHA1</title><path fill="none" stroke="black" d="M1840.23,-9425.67C1864.03,-9371.95 1933.7,-9209.82 1972,-9069 2069.12,-8711.95 1891.01,-8542.76 2116,-8249 2130.81,-8229.66 2152.78,-8215.85 2174.89,-8206.07"/><polygon fill="black" stroke="black" points="2176.48,-8209.21 2184.36,-8202.13 2173.78,-8202.74 2176.48,-8209.21"/></g>
<!-- BatchProgram__CIPPHCOP__CIPPHCOP -->
<g id="node2469" class="node" ng-click="svgclick($event, 3)"><title>BatchProgram__CIPPHCOP__CIPPHCOP</title><polygon fill="lightgrey" stroke="black" points="2388.5,-15436 2123.5,-15436 2123.5,-15400 2388.5,-15400 2388.5,-15436"/><text text-anchor="middle" x="2256" y="-15414.3" font-family="Times New Roman,serif" font-size="14.00">BatchProgram__CIPPHCOP__CIPPHCOP</text></g>
<!-- BatchProgram__P0678001__P0678001&#45;&gt;BatchProgram__CIPPHCOP__CIPPHCOP -->
<g id="edge3728" class="edge"><title>BatchProgram__P0678001__P0678001-&gt;BatchProgram__CIPPHCOP__CIPPHCOP</title><path fill="none" stroke="black" d="M1833.71,-9462.23C1846.7,-9601.4 1930.45,-10510.4 1972,-11251 1984.89,-11480.8 1966.54,-15216 2116,-15391 2116.52,-15391.6 2117.06,-15392.2 2117.6,-15392.8"/><polygon fill="black" stroke="black" points="2115.45,-15395.6 2125.13,-15399.9 2120.24,-15390.5 2115.45,-15395.6"/></g>
<!-- BatchProgram__MISQDR14__MISQDR14 -->
<g id="node10" class="node" ng-click="svgclick($event, 3)"><title>BatchProgram__MISQDR14__MISQDR14</title><polygon fill="lightgrey" stroke="black" points="3234.5,-55478 2971.5,-55478 2971.5,-55442 3234.5,-55442 3234.5,-55478"/><text text-anchor="middle" x="3103" y="-55456.3" font-family="Times New Roman,serif" font-size="14.00">BatchProgram__MISQDR14__MISQDR14</text></g>
<!-- BatchProgram__MISQSR20__MISQSR20 -->
<g id="node647" class="node" ng-click="svgclick($event, 3)"><title>BatchProgram__MISQSR20__MISQSR20</title><polygon fill="lightgrey" stroke="black" points="3644,-45961 3384,-45961 3384,-45925 3644,-45925 3644,-45961"/><text text-anchor="middle" x="3514" y="-45939.3" font-family="Times New Roman,serif" font-size="14.00">BatchProgram__MISQSR20__MISQSR20</text></g>
<!-- BatchProgram__MISQDR14__MISQDR14&#45;&gt;BatchProgram__MISQSR20__MISQSR20 -->
<g id="edge2869" class="edge"><title>BatchProgram__MISQDR14__MISQDR14-&gt;BatchProgram__MISQSR20__MISQSR20</title><path fill="none" stroke="black" d="M3224.67,-55442C3230.37,-55438.1 3235.55,-55433.5 3240,-55428 3401.22,-55230.3 3506.06,-46533.1 3512.67,-45971.4"/><polygon fill="black" stroke="black" points="3516.17,-45971.4 3512.79,-45961.3 3509.17,-45971.3 3516.17,-45971.4"/></g>
<!-- BatchProgram__V0340006__V0340006 -->
<g id="node11" class="node" ng-click="svgclick($event, 3)"><title>BatchProgram__V0340006__V0340006</title><polygon fill="lightgrey" stroke="black" points="2376.5,-44986 2135.5,-44986 2135.5,-44950 2376.5,-44950 2376.5,-44986"/><text text-anchor="middle" x="2256" y="-44964.3" font-family="Times New Roman,serif" font-size="14.00">BatchProgram__V0340006__V0340006</text></g>
<!-- BatchProgram__MISQAD54__MISQAD54 -->
<g id="node2024" class="node" ng-click="svgclick($event, 3)"><title>BatchProgram__MISQAD54__MISQAD54</title><polygon fill="lightgrey" stroke="black" points="2812.5,-28088 2549.5,-28088 2549.5,-28052 2812.5,-28052 2812.5,-28088"/><text text-anchor="middle" x="2681" y="-28066.3" font-family="Times New Roman,serif" font-size="14.00">BatchProgram__MISQAD54__MISQAD54</text></g>
<!-- BatchProgram__V0340006__V0340006&#45;&gt;BatchProgram__MISQAD54__MISQAD54 -->
<g id="edge4368" class="edge"><title>BatchProgram__V0340006__V0340006-&gt;BatchProgram__MISQAD54__MISQAD54</title><path fill="none" stroke="black" d="M2376.62,-44957.2C2383.9,-44952.9 2390.5,-44947.6 2396,-44941 2695.19,-44581.2 2240.57,-28456.6 2540,-28097 2540.62,-28096.3 2541.26,-28095.5 2541.91,-28094.8"/><polygon fill="black" stroke="black" points="2544.52,-28097.2 2549.37,-28087.7 2539.7,-28092.1 2544.52,-28097.2"/></g>
<!-- BatchProgram__V0544MDD__V0544MDD -->
<g id="node12" class="node" ng-click="svgclick($event, 3)"><title>BatchProgram__V0544MDD__V0544MDD</title><polygon fill="lightgrey" stroke="black" points="2387.5,-35378 2124.5,-35378 2124.5,-35342 2387.5,-35342 2387.5,-35378"/><text text-anchor="middle" x="2256" y="-35356.3" font-family="Times New Roman,serif" font-size="14.00">BatchProgram__V0544MDD__V0544MDD</text></g>
<!-- BatchProgram__MISQAD13__MISQAD13 -->
<g id="node1255" class="node" ng-click="svgclick($event, 3)"><title>BatchProgram__MISQAD13__MISQAD13</title><polygon fill="lightgrey" stroke="black" points="2812.5,-35240 2549.5,-35240 2549.5,-35204 2812.5,-35204 2812.5,-35240"/><text text-anchor="middle" x="2681" y="-35218.3" font-family="Times New Roman,serif" font-size="14.00">BatchProgram__MISQAD13__MISQAD13</text></g>
<!-- BatchProgram__V0544MDD__V0544MDD&#45;&gt;BatchProgram__MISQAD13__MISQAD13 -->
<g id="edge4805" class="edge"><title>BatchProgram__V0544MDD__V0544MDD-&gt;BatchProgram__MISQAD13__MISQAD13</title><path fill="none" stroke="black" d="M2360.73,-35342C2372.7,-35339.3 2384.67,-35336.3 2396,-35333 2480.59,-35308.5 2575.18,-35268.9 2631.05,-35244.3"/><polygon fill="black" stroke="black" points="2632.63,-35247.4 2640.35,-35240.1 2629.79,-35241 2632.63,-35247.4"/></g>
<!-- BatchProgram__P0365021__P0365021 -->
<g id="node13" class="node" ng-click="svgclick($event, 3)"><title>BatchProgram__P0365021__P0365021</title><polygon fill="lightgrey" stroke="black" points="1950,-39732 1712,-39732 1712,-39696 1950,-39696 1950,-39732"/><text text-anchor="middle" x="1831" y="-39710.3" font-family="Times New Roman,serif" font-size="14.00">BatchProgram__P0365021__P0365021</text></g>
<!-- BatchProgram__MISQAD72__MISQAD72 -->
<g id="node588" class="node" ng-click="svgclick($event, 3)"><title>BatchProgram__MISQAD72__MISQAD72</title><polygon fill="lightgrey" stroke="black" points="2812.5,-31448 2549.5,-31448 2549.5,-31412 2812.5,-31412 2812.5,-31448"/><text text-anchor="middle" x="2681" y="-31426.3" font-family="Times New Roman,serif" font-size="14.00">BatchProgram__MISQAD72__MISQAD72</text></g>
<!-- BatchProgram__P0365021__P0365021&#45;&gt;BatchProgram__MISQAD72__MISQAD72 -->
<g id="edge3392" class="edge"><title>BatchProgram__P0365021__P0365021-&gt;BatchProgram__MISQAD72__MISQAD72</title><path fill="none" stroke="black" d="M1950.26,-39704.5C1958.48,-39700.1 1965.91,-39694.3 1972,-39687 2319.35,-39269.4 1730.5,-20515.7 2116,-20133 2160.16,-20089.2 2351.72,-20089.3 2396,-20133 2618.79,-20353 2339.14,-31162.8 2540,-31403 2540.63,-31403.7 2541.26,-31404.5 2541.92,-31405.2"/><polygon fill="black" stroke="black" points="2539.72,-31407.9 2549.39,-31412.2 2544.52,-31402.8 2539.72,-31407.9"/></g>
<!-- BatchProgram__V0002C01__V0002C01 -->
<g id="node1847" class="node" ng-click="svgclick($event, 3)"><title>BatchProgram__V0002C01__V0002C01</title><polygon fill="lightgrey" stroke="black" points="2379.5,-22122 2132.5,-22122 2132.5,-22086 2379.5,-22086 2379.5,-22122"/><text text-anchor="middle" x="2256" y="-22100.3" font-family="Times New Roman,serif" font-size="14.00">BatchProgram__V0002C01__V0002C01</text></g>
<!-- BatchProgram__P0365021__P0365021&#45;&gt;BatchProgram__V0002C01__V0002C01 -->
<g id="edge3388" class="edge"><title>BatchProgram__P0365021__P0365021-&gt;BatchProgram__V0002C01__V0002C01</title><path fill="none" stroke="black" d="M1950.25,-39704.5C1958.47,-39700.1 1965.9,-39694.3 1972,-39687 2283.35,-39313 1853.07,-22578.5 2116,-22169 2128.54,-22149.5 2148.64,-22135.7 2169.7,-22126"/><polygon fill="black" stroke="black" points="2171.28,-22129.2 2179.09,-22122 2168.52,-22122.7 2171.28,-22129.2"/></g>
<!-- BatchProgram__V0002D01__V0002D01 -->
<g id="node2198" class="node" ng-click="svgclick($event, 3)"><title>BatchProgram__V0002D01__V0002D01</title><polygon fill="lightgrey" stroke="black" points="2379.5,-20394 2132.5,-20394 2132.5,-20358 2379.5,-20358 2379.5,-20394"/><text text-anchor="middle" x="2256" y="-20372.3" font-family="Times New Roman,serif" font-size="14.00">BatchProgram__V0002D01__V0002D01</text></g>
<!-- BatchProgram__P0365021__P0365021&#45;&gt;BatchProgram__V0002D01__V0002D01 -->
<g id="edge3389" class="edge"><title>BatchProgram__P0365021__P0365021-&gt;BatchProgram__V0002D01__V0002D01</title><path fill="none" stroke="black" d="M1950.26,-39704.5C1958.48,-39700.1 1965.91,-39694.3 1972,-39687 2314.58,-39275.2 1773.7,-20815 2116,-20403 2118.5,-20400 2121.23,-20397.2 2124.15,-20394.7"/><polygon fill="black" stroke="black" points="2126.35,-20397.5 2132.3,-20388.7 2122.18,-20391.9 2126.35,-20397.5"/></g>
<!-- BatchProgram__V0365C17__V0365C17 -->
<g id="node2272" class="node" ng-click="svgclick($event, 3)"><title>BatchProgram__V0365C17__V0365C17</title><polygon fill="lightgrey" stroke="black" points="2379.5,-20178 2132.5,-20178 2132.5,-20142 2379.5,-20142 2379.5,-20178"/><text text-anchor="middle" x="2256" y="-20156.3" font-family="Times New Roman,serif" font-size="14.00">BatchProgram__V0365C17__V0365C17</text></g>
<!-- BatchProgram__P0365021__P0365021&#45;&gt;BatchProgram__V0365C17__V0365C17 -->
<g id="edge3391" class="edge"><title>BatchProgram__P0365021__P0365021-&gt;BatchProgram__V0365C17__V0365C17</title><path fill="none" stroke="black" d="M1950.26,-39704.5C1958.48,-39700.1 1965.91,-39694.3 1972,-39687 2318.4,-39270.6 1769.88,-20603.7 2116,-20187 2118.5,-20184 2121.23,-20181.2 2124.15,-20178.7"/><polygon fill="black" stroke="black" points="2126.35,-20181.5 2132.3,-20172.7 2122.18,-20175.9 2126.35,-20181.5"/></g>
<!-- BatchProgram__V0365C11__V0365C11 -->
<g id="node2445" class="node" ng-click="svgclick($event, 3)"><title>BatchProgram__V0365C11__V0365C11</title><polygon fill="lightgrey" stroke="black" points="2379.5,-20086 2132.5,-20086 2132.5,-20050 2379.5,-20050 2379.5,-20086"/><text text-anchor="middle" x="2256" y="-20064.3" font-family="Times New Roman,serif" font-size="14.00">BatchProgram__V0365C11__V0365C11</text></g>
<!-- BatchProgram__P0365021__P0365021&#45;&gt;BatchProgram__V0365C11__V0365C11 -->
<g id="edge3393" class="edge"><title>BatchProgram__P0365021__P0365021-&gt;BatchProgram__V0365C11__V0365C11</title><path fill="none" stroke="black" d="M1950.26,-39704.5C1958.48,-39700.1 1965.91,-39694.3 1972,-39687 2319.94,-39268.7 1775.6,-20524.5 2116,-20100 2118.58,-20096.8 2121.42,-20093.8 2124.47,-20091.2"/><polygon fill="black" stroke="black" points="2126.65,-20093.9 2132.45,-20085 2122.39,-20088.3 2126.65,-20093.9"/></g>
<!-- BatchProgram__V0002D02__V0002D02 -->
<g id="node2716" class="node" ng-click="svgclick($event, 3)"><title>BatchProgram__V0002D02__V0002D02</title><polygon fill="lightgrey" stroke="black" points="2379.5,-20232 2132.5,-20232 2132.5,-20196 2379.5,-20196 2379.5,-20232"/><text text-anchor="middle" x="2256" y="-20210.3" font-family="Times New Roman,serif" font-size="14.00">BatchProgram__V0002D02__V0002D02</text></g>
<!-- BatchProgram__P0365021__P0365021&#45;&gt;BatchProgram__V0002D02__V0002D02 -->
<g id="edge3390" class="edge"><title>BatchProgram__P0365021__P0365021-&gt;BatchProgram__V0002D02__V0002D02</title><path fill="none" stroke="black" d="M1950.26,-39704.5C1958.48,-39700.1 1965.91,-39694.3 1972,-39687 2317.44,-39271.7 1770.83,-20656.5 2116,-20241 2118.5,-20238 2121.23,-20235.2 2124.15,-20232.7"/><polygon fill="black" stroke="black" points="2126.35,-20235.5 2132.3,-20226.7 2122.18,-20229.9 2126.35,-20235.5"/></g>
<!-- BatchProgram__MIPCLM85__MIPCLM85 -->
<g id="node14" class="node" ng-click="svgclick($event, 3)"><title>BatchProgram__MIPCLM85__MIPCLM85</title><polygon fill="lightgrey" stroke="black" points="1962.5,-54572 1699.5,-54572 1699.5,-54536 1962.5,-54536 1962.5,-54572"/><text text-anchor="middle" x="1831" y="-54550.3" font-family="Times New Roman,serif" font-size="14.00">BatchProgram__MIPCLM85__MIPCLM85</text></g>
<!-- BatchProgram__MISQSR22__MISQSR22 -->
<g id="node25" class="node" ng-click="svgclick($event, 3)"><title>BatchProgram__MISQSR22__MISQSR22</title><polygon fill="lightgrey" stroke="black" points="3233,-32617 2973,-32617 2973,-32581 3233,-32581 3233,-32617"/><text text-anchor="middle" x="3103" y="-32595.3" font-family="Times New Roman,serif" font-size="14.00">BatchProgram__MISQSR22__MISQSR22</text></g>
<!-- BatchProgram__MIPCLM85__MIPCLM85&#45;&gt;BatchProgram__MISQSR22__MISQSR22 -->
<g id="edge2344" class="edge"><title>BatchProgram__MIPCLM85__MIPCLM85-&gt;BatchProgram__MISQSR22__MISQSR22</title><path fill="none" stroke="black" d="M1955.16,-54535.9C1961.33,-54532 1967.02,-54527.4 1972,-54522 2281.78,-54184.9 1788.58,-53822 2116,-53502 2205.61,-53414.4 2307.65,-53557.9 2396,-53469 2598.75,-53265.1 2366.18,-52412.1 2540,-52183 2621.71,-52075.3 2745.96,-52180.8 2822,-52069 2959.43,-51867 2956.18,-34722.1 2966,-34478 2996.42,-33722.1 3082.88,-32798.3 3099.29,-32627"/><polygon fill="black" stroke="black" points="3102.78,-32627.3 3100.25,-32617 3095.81,-32626.7 3102.78,-32627.3"/></g>
<!-- BatchProgram__MISQAD50__MISQAD50 -->
<g id="node332" class="node" ng-click="svgclick($event, 3)"><title>BatchProgram__MISQAD50__MISQAD50</title><polygon fill="lightgrey" stroke="black" points="2387.5,-19416 2124.5,-19416 2124.5,-19380 2387.5,-19380 2387.5,-19416"/><text text-anchor="middle" x="2256" y="-19394.3" font-family="Times New Roman,serif" font-size="14.00">BatchProgram__MISQAD50__MISQAD50</text></g>
<!-- BatchProgram__MIPCLM85__MIPCLM85&#45;&gt;BatchProgram__MISQAD50__MISQAD50 -->
<g id="edge2345" class="edge"><title>BatchProgram__MIPCLM85__MIPCLM85-&gt;BatchProgram__MISQAD50__MISQAD50</title><path fill="none" stroke="black" d="M1908.86,-54536C1933.26,-54526.3 1957.61,-54511.4 1972,-54489 2234.85,-54079 1805.43,-19800.1 2116,-19425 2116.51,-19424.4 2117.04,-19423.8 2117.57,-19423.2"/><polygon fill="black" stroke="black" points="2120.23,-19425.5 2125,-19416 2115.37,-19420.4 2120.23,-19425.5"/></g>
<!-- BatchProgram__MISQSR19__MISQSR19 -->
<g id="node2423" class="node" ng-click="svgclick($event, 3)"><title>BatchProgram__MISQSR19__MISQSR19</title><polygon fill="lightgrey" stroke="black" points="3233,-34523 2973,-34523 2973,-34487 3233,-34487 3233,-34523"/><text text-anchor="middle" x="3103" y="-34501.3" font-family="Times New Roman,serif" font-size="14.00">BatchProgram__MISQSR19__MISQSR19</text></g>
<!-- BatchProgram__MIPCLM85__MIPCLM85&#45;&gt;BatchProgram__MISQSR19__MISQSR19 -->
<g id="edge2343" class="edge"><title>BatchProgram__MIPCLM85__MIPCLM85-&gt;BatchProgram__MISQSR19__MISQSR19</title><path fill="none" stroke="black" d="M1955.09,-54535.8C1961.28,-54532 1966.99,-54527.4 1972,-54522 2259.53,-54212.8 1837.38,-53900.2 2116,-53583 2201.49,-53485.7 2312.09,-53600.7 2396,-53502 2742.22,-53094.8 2186.71,-52709.1 2540,-52308 2625.42,-52211 2742.09,-52338.6 2822,-52237 2960.46,-52061 2955.56,-36336.7 2966,-36113 2995.92,-35472.1 3081.14,-34691.1 3098.78,-34533.5"/><polygon fill="black" stroke="black" points="3102.29,-34533.6 3099.93,-34523.2 3095.34,-34532.8 3102.29,-34533.6"/></g>
<!-- BatchProgram__MISQDD25__MISQDD25 -->
<g id="node15" class="node" ng-click="svgclick($event, 3)"><title>BatchProgram__MISQDD25__MISQDD25</title><polygon fill="lightgrey" stroke="black" points="2387.5,-50428 2124.5,-50428 2124.5,-50392 2387.5,-50392 2387.5,-50428"/><text text-anchor="middle" x="2256" y="-50406.3" font-family="Times New Roman,serif" font-size="14.00">BatchProgram__MISQDD25__MISQDD25</text></g>
<!-- BatchProgram__V0275006__V0275006 -->
<g id="node16" class="node" ng-click="svgclick($event, 3)"><title>BatchProgram__V0275006__V0275006</title><polygon fill="lightgrey" stroke="black" points="2376.5,-12908 2135.5,-12908 2135.5,-12872 2376.5,-12872 2376.5,-12908"/><text text-anchor="middle" x="2256" y="-12886.3" font-family="Times New Roman,serif" font-size="14.00">BatchProgram__V0275006__V0275006</text></g>
<!-- BatchProgram__V002SPAP__V002SPAP -->
<g id="node70" class="node" ng-click="svgclick($event, 3)"><title>BatchProgram__V002SPAP__V002SPAP</title><polygon fill="lightgrey" stroke="black" points="2809,-4842 2553,-4842 2553,-4806 2809,-4806 2809,-4842"/><text text-anchor="middle" x="2681" y="-4820.3" font-family="Times New Roman,serif" font-size="14.00">BatchProgram__V002SPAP__V002SPAP</text></g>
<!-- BatchProgram__V0275006__V0275006&#45;&gt;BatchProgram__V002SPAP__V002SPAP -->
<g id="edge4233" class="edge"><title>BatchProgram__V0275006__V0275006-&gt;BatchProgram__V002SPAP__V002SPAP</title><path fill="none" stroke="black" d="M2376.52,-12879.1C2383.83,-12874.9 2390.45,-12869.6 2396,-12863 2514.66,-12722.2 2528.91,-6419.79 2540,-6236 2573.7,-5677.62 2657.77,-4998.82 2676.33,-4852.6"/><polygon fill="black" stroke="black" points="2679.86,-4852.63 2677.65,-4842.27 2672.92,-4851.75 2679.86,-4852.63"/></g>
<!-- BatchProgram__V0275006__V0275006&#45;&gt;BatchProgram__MISQAD72__MISQAD72 -->
<g id="edge4234" class="edge"><title>BatchProgram__V0275006__V0275006-&gt;BatchProgram__MISQAD72__MISQAD72</title><path fill="none" stroke="black" d="M2376.62,-12900.8C2383.91,-12905.1 2390.5,-12910.4 2396,-12917 2724.2,-13311.9 2211.53,-31008.3 2540,-31403 2540.62,-31403.7 2541.26,-31404.5 2541.91,-31405.2"/><polygon fill="black" stroke="black" points="2539.7,-31407.9 2549.37,-31412.3 2544.52,-31402.8 2539.7,-31407.9"/></g>
<!-- BatchProgram__R0255001__R0255001 -->
<g id="node17" class="node" ng-click="svgclick($event, 3)"><title>BatchProgram__R0255001__R0255001</title><polygon fill="lightgrey" stroke="black" points="1951.5,-52526 1710.5,-52526 1710.5,-52490 1951.5,-52490 1951.5,-52526"/><text text-anchor="middle" x="1831" y="-52504.3" font-family="Times New Roman,serif" font-size="14.00">BatchProgram__R0255001__R0255001</text></g>
<!-- BatchProgram__R0001MPD__R0001MPD -->
<g id="node2085" class="node" ng-click="svgclick($event, 3)"><title>BatchProgram__R0001MPD__R0001MPD</title><polygon fill="lightgrey" stroke="black" points="2386,-15382 2126,-15382 2126,-15346 2386,-15346 2386,-15382"/><text text-anchor="middle" x="2256" y="-15360.3" font-family="Times New Roman,serif" font-size="14.00">BatchProgram__R0001MPD__R0001MPD</text></g>
<!-- BatchProgram__R0255001__R0255001&#45;&gt;BatchProgram__R0001MPD__R0001MPD -->
<g id="edge3864" class="edge"><title>BatchProgram__R0255001__R0255001-&gt;BatchProgram__R0001MPD__R0001MPD</title><path fill="none" stroke="black" d="M1842.78,-52489.8C1870.91,-52441.2 1946.15,-52303.2 1972,-52177 2023.26,-51926.7 1953.11,-15587.8 2116,-15391 2116.74,-15390.1 2117.51,-15389.2 2118.29,-15388.4"/><polygon fill="black" stroke="black" points="2120.92,-15390.7 2125.84,-15381.3 2116.14,-15385.6 2120.92,-15390.7"/></g>
<!-- BatchProgram__X0255C01__X0255C01 -->
<g id="node2471" class="node" ng-click="svgclick($event, 3)"><title>BatchProgram__X0255C01__X0255C01</title><polygon fill="lightgrey" stroke="black" points="2379.5,-52550 2132.5,-52550 2132.5,-52514 2379.5,-52514 2379.5,-52550"/><text text-anchor="middle" x="2256" y="-52528.3" font-family="Times New Roman,serif" font-size="14.00">BatchProgram__X0255C01__X0255C01</text></g>
<!-- BatchProgram__R0255001__R0255001&#45;&gt;BatchProgram__X0255C01__X0255C01 -->
<g id="edge3863" class="edge"><title>BatchProgram__R0255001__R0255001-&gt;BatchProgram__X0255C01__X0255C01</title><path fill="none" stroke="black" d="M1951.52,-52514.8C2004.76,-52517.8 2067.66,-52521.4 2122.36,-52524.5"/><polygon fill="black" stroke="black" points="2122.29,-52528 2132.47,-52525 2122.68,-52521 2122.29,-52528"/></g>
<!-- BatchProgram__MISQADW5__MISQADW5 -->
<g id="node18" class="node" ng-click="svgclick($event, 3)"><title>BatchProgram__MISQADW5__MISQADW5</title><polygon fill="lightgrey" stroke="black" points="2394.5,-20032 2117.5,-20032 2117.5,-19996 2394.5,-19996 2394.5,-20032"/><text text-anchor="middle" x="2256" y="-20010.3" font-family="Times New Roman,serif" font-size="14.00">BatchProgram__MISQADW5__MISQADW5</text></g>
<!-- BatchProgram__PDEYTD1A__PDEYTD1A -->
<g id="node19" class="node" ng-click="svgclick($event, 3)"><title>BatchProgram__PDEYTD1A__PDEYTD1A</title><polygon fill="lightgrey" stroke="black" points="1965.5,-49254 1696.5,-49254 1696.5,-49218 1965.5,-49218 1965.5,-49254"/><text text-anchor="middle" x="1831" y="-49232.3" font-family="Times New Roman,serif" font-size="14.00">BatchProgram__PDEYTD1A__PDEYTD1A</text></g>
<!-- BatchProgram__MISQDD68__MISQDD68 -->
<g id="node1559" class="node" ng-click="svgclick($event, 3)"><title>BatchProgram__MISQDD68__MISQDD68</title><polygon fill="lightgrey" stroke="black" points="2387.5,-36678 2124.5,-36678 2124.5,-36642 2387.5,-36642 2387.5,-36678"/><text text-anchor="middle" x="2256" y="-36656.3" font-family="Times New Roman,serif" font-size="14.00">BatchProgram__MISQDD68__MISQDD68</text></g>
<!-- BatchProgram__PDEYTD1A__PDEYTD1A&#45;&gt;BatchProgram__MISQDD68__MISQDD68 -->
<g id="edge3781" class="edge"><title>BatchProgram__PDEYTD1A__PDEYTD1A-&gt;BatchProgram__MISQDD68__MISQDD68</title><path fill="none" stroke="black" d="M1956.91,-49218C1962.52,-49214.1 1967.62,-49209.4 1972,-49204 2184.39,-48940.8 2053.44,-37361.4 2116,-37029 2141.13,-36895.5 2210.83,-36747.2 2240.9,-36687.3"/><polygon fill="black" stroke="black" points="2244.14,-36688.7 2245.53,-36678.2 2237.9,-36685.5 2244.14,-36688.7"/></g>
<!-- BatchProgram__MIPCDL71__MIPCDL71 -->
<g id="node21" class="node" ng-click="svgclick($event, 3)"><title>BatchProgram__MIPCDL71__MIPCDL71</title><polygon fill="lightgrey" stroke="black" points="1536.5,-46882 1277.5,-46882 1277.5,-46846 1536.5,-46846 1536.5,-46882"/><text text-anchor="middle" x="1407" y="-46860.3" font-family="Times New Roman,serif" font-size="14.00">BatchProgram__MIPCDL71__MIPCDL71</text></g>
<!-- BatchProgram__MISQNDZ5__MISQNDZ5 -->
<g id="node559" class="node" ng-click="svgclick($event, 3)"><title>BatchProgram__MISQNDZ5__MISQNDZ5</title><polygon fill="lightgrey" stroke="black" points="1964,-46180 1698,-46180 1698,-46144 1964,-46144 1964,-46180"/><text text-anchor="middle" x="1831" y="-46158.3" font-family="Times New Roman,serif" font-size="14.00">BatchProgram__MISQNDZ5__MISQNDZ5</text></g>
<!-- BatchProgram__MIPCDL71__MIPCDL71&#45;&gt;BatchProgram__MISQNDZ5__MISQNDZ5 -->
<g id="edge1942" class="edge"><title>BatchProgram__MIPCDL71__MIPCDL71-&gt;BatchProgram__MISQNDZ5__MISQNDZ5</title><path fill="none" stroke="black" d="M1534.99,-46846C1538.9,-46843.3 1542.59,-46840.3 1546,-46837 1757.25,-46631.1 1478.47,-46394.7 1690,-46189 1690.95,-46188.1 1691.92,-46187.2 1692.91,-46186.3"/><polygon fill="black" stroke="black" points="1695.11,-46189 1700.87,-46180.1 1690.82,-46183.5 1695.11,-46189"/></g>
<!-- BatchProgram__MISQNDZY__MISQNDZY -->
<g id="node2487" class="node" ng-click="svgclick($event, 3)"><title>BatchProgram__MISQNDZY__MISQNDZY</title><polygon fill="lightgrey" stroke="black" points="1967,-46612 1695,-46612 1695,-46576 1967,-46576 1967,-46612"/><text text-anchor="middle" x="1831" y="-46590.3" font-family="Times New Roman,serif" font-size="14.00">BatchProgram__MISQNDZY__MISQNDZY</text></g>
<!-- BatchProgram__MIPCDL71__MIPCDL71&#45;&gt;BatchProgram__MISQNDZY__MISQNDZY -->
<g id="edge1943" class="edge"><title>BatchProgram__MIPCDL71__MIPCDL71-&gt;BatchProgram__MISQNDZY__MISQNDZY</title><path fill="none" stroke="black" d="M1529.86,-46845.9C1535.49,-46843.3 1540.9,-46840.4 1546,-46837 1640.81,-46774.5 1596.19,-46689.9 1690,-46626 1695.34,-46622.4 1701.03,-46619.1 1706.96,-46616.3"/><polygon fill="black" stroke="black" points="1708.72,-46619.3 1716.43,-46612 1705.87,-46612.9 1708.72,-46619.3"/></g>
<!-- BatchProgram__MIIM0001__MIIM0001 -->
<g id="node22" class="node" ng-click="svgclick($event, 3)"><title>BatchProgram__MIIM0001__MIIM0001</title><polygon fill="lightgrey" stroke="black" points="2379.5,-22322 2132.5,-22322 2132.5,-22286 2379.5,-22286 2379.5,-22322"/><text text-anchor="middle" x="2256" y="-22300.3" font-family="Times New Roman,serif" font-size="14.00">BatchProgram__MIIM0001__MIIM0001</text></g>
<!-- BatchProgram__MISQAP30__MISQAP30 -->
<g id="node2184" class="node" ng-click="svgclick($event, 3)"><title>BatchProgram__MISQAP30__MISQAP30</title><polygon fill="lightgrey" stroke="black" points="2811,-7558 2551,-7558 2551,-7522 2811,-7522 2811,-7558"/><text text-anchor="middle" x="2681" y="-7536.3" font-family="Times New Roman,serif" font-size="14.00">BatchProgram__MISQAP30__MISQAP30</text></g>
<!-- BatchProgram__MIIM0001__MIIM0001&#45;&gt;BatchProgram__MISQAP30__MISQAP30 -->
<g id="edge1368" class="edge"><title>BatchProgram__MIIM0001__MIIM0001-&gt;BatchProgram__MISQAP30__MISQAP30</title><path fill="none" stroke="black" d="M2379.69,-22291.3C2385.76,-22287.4 2391.28,-22282.7 2396,-22277 2657.48,-21963 2278.31,-7880.84 2540,-7567 2541.02,-7565.78 2542.07,-7564.61 2543.15,-7563.48"/><polygon fill="black" stroke="black" points="2545.7,-7565.9 2550.8,-7556.61 2541.02,-7560.69 2545.7,-7565.9"/></g>
<!-- BatchProgram__IPGR5555__IPGR5555 -->
<g id="node23" class="node" ng-click="svgclick($event, 3)"><title>BatchProgram__IPGR5555__IPGR5555</title><polygon fill="lightgrey" stroke="black" points="1112.5,-34528 865.5,-34528 865.5,-34492 1112.5,-34492 1112.5,-34528"/><text text-anchor="middle" x="989" y="-34506.3" font-family="Times New Roman,serif" font-size="14.00">BatchProgram__IPGR5555__IPGR5555</text></g>
<!-- BatchProgram__IPGR6666__IPGR6666 -->
<g id="node1732" class="node" ng-click="svgclick($event, 3)"><title>BatchProgram__IPGR6666__IPGR6666</title><polygon fill="lightgrey" stroke="black" points="1530.5,-34870 1283.5,-34870 1283.5,-34834 1530.5,-34834 1530.5,-34870"/><text text-anchor="middle" x="1407" y="-34848.3" font-family="Times New Roman,serif" font-size="14.00">BatchProgram__IPGR6666__IPGR6666</text></g>
<!-- BatchProgram__IPGR5555__IPGR5555&#45;&gt;BatchProgram__IPGR6666__IPGR6666 -->
<g id="edge843" class="edge"><title>BatchProgram__IPGR5555__IPGR5555-&gt;BatchProgram__IPGR6666__IPGR6666</title><path fill="none" stroke="black" d="M1100.82,-34528C1109.1,-34531.8 1116.95,-34536.4 1124,-34542 1234.86,-34629.3 1155.37,-34740 1268,-34825 1270.09,-34826.6 1272.24,-34828.1 1274.46,-34829.5"/><polygon fill="black" stroke="black" points="1272.85,-34832.6 1283.26,-34834.5 1276.33,-34826.5 1272.85,-34832.6"/></g>
<!-- BatchProgram__MISQAD12__MISQAD12 -->
<g id="node2533" class="node" ng-click="svgclick($event, 3)"><title>BatchProgram__MISQAD12__MISQAD12</title><polygon fill="lightgrey" stroke="black" points="2387.5,-50590 2124.5,-50590 2124.5,-50554 2387.5,-50554 2387.5,-50590"/><text text-anchor="middle" x="2256" y="-50568.3" font-family="Times New Roman,serif" font-size="14.00">BatchProgram__MISQAD12__MISQAD12</text></g>
<!-- BatchProgram__IPGR5555__IPGR5555&#45;&gt;BatchProgram__MISQAD12__MISQAD12 -->
<g id="edge842" class="edge"><title>BatchProgram__IPGR5555__IPGR5555-&gt;BatchProgram__MISQAD12__MISQAD12</title><path fill="none" stroke="black" d="M1015.62,-34528C1047.37,-34552 1100.19,-34597.6 1124,-34651 1288.24,-35019.1 988.565,-36168.5 1268,-36459 1354.26,-36548.7 1462.53,-36399.7 1546,-36492 1841.35,-36818.5 1394.38,-44088.8 1690,-44415 1774.74,-44508.5 1887.01,-44354.7 1972,-44448 2200.2,-44698.4 1897.4,-50286.1 2116,-50545 2116.52,-50545.6 2117.05,-50546.2 2117.59,-50546.8"/><polygon fill="black" stroke="black" points="2115.42,-50549.6 2125.09,-50553.9 2120.24,-50544.5 2115.42,-50549.6"/></g>
<!-- BatchProgram__IPDD0482__IPDD0482 -->
<g id="node24" class="node" ng-click="svgclick($event, 3)"><title>BatchProgram__IPDD0482__IPDD0482</title><polygon fill="lightgrey" stroke="black" points="1953.5,-40792 1708.5,-40792 1708.5,-40756 1953.5,-40756 1953.5,-40792"/><text text-anchor="middle" x="1831" y="-40770.3" font-family="Times New Roman,serif" font-size="14.00">BatchProgram__IPDD0482__IPDD0482</text></g>
<!-- BatchProgram__EDITDATE__EDITDATE -->
<g id="node1276" class="node" ng-click="svgclick($event, 3)"><title>BatchProgram__EDITDATE__EDITDATE</title><polygon fill="lightgrey" stroke="black" points="2387.5,-42016 2124.5,-42016 2124.5,-41980 2387.5,-41980 2387.5,-42016"/><text text-anchor="middle" x="2256" y="-41994.3" font-family="Times New Roman,serif" font-size="14.00">BatchProgram__EDITDATE__EDITDATE</text></g>
<!-- BatchProgram__IPDD0482__IPDD0482&#45;&gt;BatchProgram__EDITDATE__EDITDATE -->
<g id="edge520" class="edge"><title>BatchProgram__IPDD0482__IPDD0482-&gt;BatchProgram__EDITDATE__EDITDATE</title><path fill="none" stroke="black" d="M1953.7,-40791C1960.45,-40795.1 1966.65,-40800.1 1972,-40806 2320.3,-41191.5 1768,-41580.3 2116,-41966 2118.6,-41968.9 2121.4,-41971.5 2124.37,-41974"/><polygon fill="black" stroke="black" points="2122.45,-41976.9 2132.6,-41979.9 2126.55,-41971.2 2122.45,-41976.9"/></g>
<!-- BatchProgram__MISQSR22__MISQSR22&#45;&gt;BatchProgram__MISQSR20__MISQSR20 -->
<g id="edge2956" class="edge"><title>BatchProgram__MISQSR22__MISQSR22-&gt;BatchProgram__MISQSR20__MISQSR20</title><path fill="none" stroke="black" d="M3105.64,-32617C3118.45,-32758.7 3202.9,-33706.2 3240,-34478 3475.22,-39371.5 3510.48,-45450.2 3512.86,-45914.6"/><polygon fill="black" stroke="black" points="3509.36,-45914.9 3512.91,-45924.8 3516.36,-45914.8 3509.36,-45914.9"/></g>
<!-- BatchProgram__CP031919__CP031919 -->
<g id="node29" class="node" ng-click="svgclick($event, 3)"><title>BatchProgram__CP031919__CP031919</title><polygon fill="lightgrey" stroke="black" points="2378,-44500 2134,-44500 2134,-44464 2378,-44464 2378,-44500"/><text text-anchor="middle" x="2256" y="-44478.3" font-family="Times New Roman,serif" font-size="14.00">BatchProgram__CP031919__CP031919</text></g>
<!-- BatchProgram__MISQADA2__MISQADA2 -->
<g id="node660" class="node" ng-click="svgclick($event, 3)"><title>BatchProgram__MISQADA2__MISQADA2</title><polygon fill="lightgrey" stroke="black" points="2815.5,-27602 2546.5,-27602 2546.5,-27566 2815.5,-27566 2815.5,-27602"/><text text-anchor="middle" x="2681" y="-27580.3" font-family="Times New Roman,serif" font-size="14.00">BatchProgram__MISQADA2__MISQADA2</text></g>
<!-- BatchProgram__CP031919__CP031919&#45;&gt;BatchProgram__MISQADA2__MISQADA2 -->
<g id="edge111" class="edge"><title>BatchProgram__CP031919__CP031919-&gt;BatchProgram__MISQADA2__MISQADA2</title><path fill="none" stroke="black" d="M2378.02,-44466C2384.78,-44461.6 2390.88,-44456.4 2396,-44450 2688.87,-44085.3 2240.66,-27970.4 2540,-27611 2540.5,-27610.4 2541.02,-27609.8 2541.54,-27609.2"/><polygon fill="black" stroke="black" points="2544.04,-27611.7 2548.81,-27602.2 2539.18,-27606.6 2544.04,-27611.7"/></g>
<!-- BatchProgram__V0320366__V0320366 -->
<g id="node31" class="node" ng-click="svgclick($event, 3)"><title>BatchProgram__V0320366__V0320366</title><polygon fill="lightgrey" stroke="black" points="2376.5,-38208 2135.5,-38208 2135.5,-38172 2376.5,-38172 2376.5,-38208"/><text text-anchor="middle" x="2256" y="-38186.3" font-family="Times New Roman,serif" font-size="14.00">BatchProgram__V0320366__V0320366</text></g>
</g>
</svg>