<?xml version="1.0" encoding="UTF-8"?>
<!DOCTYPE svg PUBLIC "-//W3C//DTD SVG 1.1//EN" "http://www.w3.org/Graphics/SVG/1.1/DTD/svg11.dtd"><!-- Generated by graphviz version 2.34.0 (20130907.0111)
 --><!-- Title: G Pages: 1 --><svg xmlns="http://www.w3.org/2000/svg" xmlns:xlink="http://www.w3.org/1999/xlink" width="756pt" height="4552pt" viewBox="0.00 0.00 756.00 4552.00" preserveAspectRatio="xMidYMid meet" zoomAndPan="magnify" version="1.1" contentScriptType="application/ecmascript" contentStyleType="text/css"><g id="graph0" class="graph" transform="scale(1 1) rotate(0) translate(4 4548)"><title>G</title><polygon fill="white" stroke="white" points="-4,4 -4,-4548 752,-4548 752,4 -4,4"/><!-- methodBody_3256_3284 --><g id="node1" class="node" ng-click="svgclick($event, 1)"><title>methodBody_3256_3284</title><ellipse fill="lightgrey" stroke="black" cx="568" cy="-4526" rx="102.536" ry="18"/><text text-anchor="middle" x="568" y="-4522.3" font-family="Times New Roman,serif" font-size="14.00">methodBody_3256_3284</text></g><!-- STATEMENT_3256_3256 --><g id="node2" class="node" ng-click="svgclick($event, 1)"><title>STATEMENT_3256_3256</title><polygon fill="lightgrey" stroke="black" points="568.25,-4348 399.75,-4348 399.75,-4312 568.25,-4312 568.25,-4348"/><text text-anchor="middle" x="484" y="-4326.3" font-family="Times New Roman,serif" font-size="14.00">STATEMENT_3256_3256</text></g><!-- methodBody_3256_3284&#45;&gt;STATEMENT_3256_3256 --><g id="edge21" class="edge"><title>methodBody_3256_3284-&gt;STATEMENT_3256_3256</title><path fill="none" stroke="black" d="M560.546,-4507.78C545.819,-4473.77 512.913,-4397.78 495.429,-4357.4"/><polygon fill="black" stroke="black" points="498.623,-4355.96 491.438,-4348.18 492.199,-4358.75 498.623,-4355.96"/><text text-anchor="middle" x="541.5" y="-4424.3" font-family="Times New Roman,serif" font-size="14.00">start</text></g><!-- STATEMENT_3257_3257 --><g id="node3" class="node" ng-click="svgclick($event, 1)"><title>STATEMENT_3257_3257</title><polygon fill="lightgrey" stroke="black" points="559.25,-4152 390.75,-4152 390.75,-4116 559.25,-4116 559.25,-4152"/><text text-anchor="middle" x="475" y="-4130.3" font-family="Times New Roman,serif" font-size="14.00">STATEMENT_3257_3257</text></g><!-- STATEMENT_3256_3256&#45;&gt;STATEMENT_3257_3257 --><g id="edge1" class="edge"><title>STATEMENT_3256_3256-&gt;STATEMENT_3257_3257</title><path fill="none" stroke="black" d="M483.201,-4311.78C481.634,-4277.99 478.142,-4202.74 476.26,-4162.17"/><polygon fill="black" stroke="black" points="479.757,-4162 475.797,-4152.18 472.764,-4162.33 479.757,-4162"/><text text-anchor="middle" x="492" y="-4228.3" font-family="Times New Roman,serif" font-size="14.00">next</text></g><!-- STATEMENT_3258_3258 --><g id="node4" class="node" ng-click="svgclick($event, 1)"><title>STATEMENT_3258_3258</title><polygon fill="lightgrey" stroke="black" points="557.25,-3956 388.75,-3956 388.75,-3920 557.25,-3920 557.25,-3956"/><text text-anchor="middle" x="473" y="-3934.3" font-family="Times New Roman,serif" font-size="14.00">STATEMENT_3258_3258</text></g><!-- STATEMENT_3257_3257&#45;&gt;STATEMENT_3258_3258 --><g id="edge2" class="edge"><title>STATEMENT_3257_3257-&gt;STATEMENT_3258_3258</title><path fill="none" stroke="black" d="M474.823,-4115.78C474.475,-4082.06 473.702,-4007.06 473.283,-3966.43"/><polygon fill="black" stroke="black" points="476.78,-3966.14 473.177,-3956.18 469.78,-3966.21 476.78,-3966.14"/><text text-anchor="middle" x="487" y="-4032.3" font-family="Times New Roman,serif" font-size="14.00">next</text></g><!-- STATEMENT_3259_3259 --><g id="node5" class="node" ng-click="svgclick($event, 1)"><title>STATEMENT_3259_3259</title><polygon fill="lightgrey" stroke="black" points="557.25,-3760 388.75,-3760 388.75,-3724 557.25,-3724 557.25,-3760"/><text text-anchor="middle" x="473" y="-3738.3" font-family="Times New Roman,serif" font-size="14.00">STATEMENT_3259_3259</text></g><!-- STATEMENT_3258_3258&#45;&gt;STATEMENT_3259_3259 --><g id="edge3" class="edge"><title>STATEMENT_3258_3258-&gt;STATEMENT_3259_3259</title><path fill="none" stroke="black" d="M473,-3919.78C473,-3886.06 473,-3811.06 473,-3770.43"/><polygon fill="black" stroke="black" points="476.5,-3770.18 473,-3760.18 469.5,-3770.18 476.5,-3770.18"/><text text-anchor="middle" x="485" y="-3836.3" font-family="Times New Roman,serif" font-size="14.00">next</text></g><!-- STATEMENT_3260_3260 --><g id="node6" class="node" ng-click="svgclick($event, 1)"><title>STATEMENT_3260_3260</title><polygon fill="lightgrey" stroke="black" points="557.25,-3564 388.75,-3564 388.75,-3528 557.25,-3528 557.25,-3564"/><text text-anchor="middle" x="473" y="-3542.3" font-family="Times New Roman,serif" font-size="14.00">STATEMENT_3260_3260</text></g><!-- STATEMENT_3259_3259&#45;&gt;STATEMENT_3260_3260 --><g id="edge4" class="edge"><title>STATEMENT_3259_3259-&gt;STATEMENT_3260_3260</title><path fill="none" stroke="black" d="M473,-3723.78C473,-3690.06 473,-3615.06 473,-3574.43"/><polygon fill="black" stroke="black" points="476.5,-3574.18 473,-3564.18 469.5,-3574.18 476.5,-3574.18"/><text text-anchor="middle" x="485" y="-3640.3" font-family="Times New Roman,serif" font-size="14.00">next</text></g><!-- STATEMENT_3261_3261 --><g id="node7" class="node" ng-click="svgclick($event, 1)"><title>STATEMENT_3261_3261</title><polygon fill="lightgrey" stroke="black" points="557.25,-3368 388.75,-3368 388.75,-3332 557.25,-3332 557.25,-3368"/><text text-anchor="middle" x="473" y="-3346.3" font-family="Times New Roman,serif" font-size="14.00">STATEMENT_3261_3261</text></g><!-- STATEMENT_3260_3260&#45;&gt;STATEMENT_3261_3261 --><g id="edge5" class="edge"><title>STATEMENT_3260_3260-&gt;STATEMENT_3261_3261</title><path fill="none" stroke="black" d="M473,-3527.78C473,-3494.06 473,-3419.06 473,-3378.43"/><polygon fill="black" stroke="black" points="476.5,-3378.18 473,-3368.18 469.5,-3378.18 476.5,-3378.18"/><text text-anchor="middle" x="485" y="-3444.3" font-family="Times New Roman,serif" font-size="14.00">next</text></g><!-- STATEMENT_3262_3262 --><g id="node8" class="node" ng-click="svgclick($event, 1)"><title>STATEMENT_3262_3262</title><polygon fill="lightgrey" stroke="black" points="557.25,-3172 388.75,-3172 388.75,-3136 557.25,-3136 557.25,-3172"/><text text-anchor="middle" x="473" y="-3150.3" font-family="Times New Roman,serif" font-size="14.00">STATEMENT_3262_3262</text></g><!-- STATEMENT_3261_3261&#45;&gt;STATEMENT_3262_3262 --><g id="edge6" class="edge"><title>STATEMENT_3261_3261-&gt;STATEMENT_3262_3262</title><path fill="none" stroke="black" d="M473,-3331.78C473,-3298.06 473,-3223.06 473,-3182.43"/><polygon fill="black" stroke="black" points="476.5,-3182.18 473,-3172.18 469.5,-3182.18 476.5,-3182.18"/><text text-anchor="middle" x="485" y="-3248.3" font-family="Times New Roman,serif" font-size="14.00">next</text></g><!-- STATEMENT_3263_3263 --><g id="node9" class="node" ng-click="svgclick($event, 1)"><title>STATEMENT_3263_3263</title><polygon fill="lightgrey" stroke="black" points="489.25,-2976 320.75,-2976 320.75,-2940 489.25,-2940 489.25,-2976"/><text text-anchor="middle" x="405" y="-2954.3" font-family="Times New Roman,serif" font-size="14.00">STATEMENT_3263_3263</text></g><!-- STATEMENT_3262_3262&#45;&gt;STATEMENT_3263_3263 --><g id="edge7" class="edge"><title>STATEMENT_3262_3262-&gt;STATEMENT_3263_3263</title><path fill="none" stroke="black" d="M466.965,-3135.78C455.069,-3101.85 428.519,-3026.1 414.342,-2985.65"/><polygon fill="black" stroke="black" points="417.632,-2984.46 411.021,-2976.18 411.026,-2986.77 417.632,-2984.46"/><text text-anchor="middle" x="454" y="-3052.3" font-family="Times New Roman,serif" font-size="14.00">next</text></g><!-- STATEMENT_3264_3264 --><g id="node10" class="node" ng-click="svgclick($event, 1)"><title>STATEMENT_3264_3264</title><polygon fill="lightgrey" stroke="black" points="489.25,-2780 320.75,-2780 320.75,-2744 489.25,-2744 489.25,-2780"/><text text-anchor="middle" x="405" y="-2758.3" font-family="Times New Roman,serif" font-size="14.00">STATEMENT_3264_3264</text></g><!-- STATEMENT_3263_3263&#45;&gt;STATEMENT_3264_3264 --><g id="edge8" class="edge"><title>STATEMENT_3263_3263-&gt;STATEMENT_3264_3264</title><path fill="none" stroke="black" d="M405,-2939.78C405,-2906.06 405,-2831.06 405,-2790.43"/><polygon fill="black" stroke="black" points="408.5,-2790.18 405,-2780.18 401.5,-2790.18 408.5,-2790.18"/><text text-anchor="middle" x="417" y="-2856.3" font-family="Times New Roman,serif" font-size="14.00">next</text></g><!-- CONDITION_BLOCK_3265_3266 --><g id="node11" class="node" ng-click="svgclick($event, 1)"><title>CONDITION_BLOCK_3265_3266</title><polygon fill="lightgrey" stroke="black" points="514,-2584 296,-2584 296,-2548 514,-2548 514,-2584"/><text text-anchor="middle" x="405" y="-2562.3" font-family="Times New Roman,serif" font-size="14.00">CONDITION_BLOCK_3265_3266</text></g><!-- STATEMENT_3264_3264&#45;&gt;CONDITION_BLOCK_3265_3266 --><g id="edge9" class="edge"><title>STATEMENT_3264_3264-&gt;CONDITION_BLOCK_3265_3266</title><path fill="none" stroke="black" d="M405,-2743.78C405,-2710.06 405,-2635.06 405,-2594.43"/><polygon fill="black" stroke="black" points="408.5,-2594.18 405,-2584.18 401.5,-2594.18 408.5,-2594.18"/><text text-anchor="middle" x="417" y="-2660.3" font-family="Times New Roman,serif" font-size="14.00">next</text></g><!-- CONDITION_3265_3265 --><g id="node12" class="node" ng-click="svgclick($event, 1)"><title>CONDITION_3265_3265</title><polygon fill="lightgrey" stroke="black" points="337,-2388 186.388,-2370 337,-2352 487.612,-2370 337,-2388"/><text text-anchor="middle" x="337" y="-2366.3" font-family="Times New Roman,serif" font-size="14.00">CONDITION_3265_3265</text></g><!-- CONDITION_BLOCK_3265_3266&#45;&gt;CONDITION_3265_3265 --><g id="edge22" class="edge"><title>CONDITION_BLOCK_3265_3266-&gt;CONDITION_3265_3265</title><path fill="none" stroke="black" d="M398.965,-2547.78C387.005,-2513.66 360.23,-2437.27 346.113,-2397"/><polygon fill="black" stroke="black" points="349.343,-2395.63 342.732,-2387.35 342.737,-2397.95 349.343,-2395.63"/><text text-anchor="middle" x="386.5" y="-2464.3" font-family="Times New Roman,serif" font-size="14.00">start</text></g><!-- STATEMENT_3267_3267 --><g id="node15" class="node" ng-click="svgclick($event, 1)"><title>STATEMENT_3267_3267</title><polygon fill="lightgrey" stroke="black" points="168.25,-2388 -0.25,-2388 -0.25,-2352 168.25,-2352 168.25,-2388"/><text text-anchor="middle" x="84" y="-2366.3" font-family="Times New Roman,serif" font-size="14.00">STATEMENT_3267_3267</text></g><!-- CONDITION_BLOCK_3265_3266&#45;&gt;STATEMENT_3267_3267 --><g id="edge10" class="edge"><title>CONDITION_BLOCK_3265_3266-&gt;STATEMENT_3267_3267</title><path fill="none" stroke="black" d="M376.795,-2547.95C318.787,-2512.9 186.119,-2432.72 121.184,-2393.47"/><polygon fill="black" stroke="black" points="122.855,-2390.39 112.486,-2388.22 119.234,-2396.38 122.855,-2390.39"/><text text-anchor="middle" x="267" y="-2464.3" font-family="Times New Roman,serif" font-size="14.00">next</text></g><!-- SEQUENCE_BLOCK_3266_3266 --><g id="node13" class="node" ng-click="svgclick($event, 1)"><title>SEQUENCE_BLOCK_3266_3266</title><polygon fill="lightgrey" stroke="black" points="567.25,-2192 354.75,-2192 354.75,-2156 567.25,-2156 567.25,-2192"/><text text-anchor="middle" x="461" y="-2170.3" font-family="Times New Roman,serif" font-size="14.00">SEQUENCE_BLOCK_3266_3266</text></g><!-- CONDITION_3265_3265&#45;&gt;SEQUENCE_BLOCK_3266_3266 --><g id="edge31" class="edge"><title>CONDITION_3265_3265-&gt;SEQUENCE_BLOCK_3266_3266</title><path fill="none" stroke="black" d="M347.147,-2353.12C368.55,-2319.64 418.48,-2241.52 444.527,-2200.77"/><polygon fill="black" stroke="black" points="447.568,-2202.51 450.004,-2192.2 441.67,-2198.74 447.568,-2202.51"/><text text-anchor="middle" x="414" y="-2268.3" font-family="Times New Roman,serif" font-size="14.00">true</text></g><!-- SEQUENCE_BLOCK_3266_3266&#45;&gt;CONDITION_BLOCK_3265_3266 --><g id="edge27" class="edge"><title>SEQUENCE_BLOCK_3266_3266-&gt;CONDITION_BLOCK_3265_3266</title><path fill="none" stroke="black" d="M468.375,-2192.02C483.125,-2228.35 513.409,-2316.06 496,-2388 482.034,-2445.71 445.813,-2505.7 423.509,-2538.9"/><polygon fill="black" stroke="black" points="420.364,-2537.3 417.617,-2547.53 426.146,-2541.25 420.364,-2537.3"/><text text-anchor="middle" x="529.5" y="-2366.3" font-family="Times New Roman,serif" font-size="14.00">is_end_of</text></g><!-- STATEMENT_3266_3266 --><g id="node14" class="node" ng-click="svgclick($event, 1)"><title>STATEMENT_3266_3266</title><polygon fill="lightgrey" stroke="black" points="569.25,-1996 400.75,-1996 400.75,-1960 569.25,-1960 569.25,-1996"/><text text-anchor="middle" x="485" y="-1974.3" font-family="Times New Roman,serif" font-size="14.00">STATEMENT_3266_3266</text></g><!-- SEQUENCE_BLOCK_3266_3266&#45;&gt;STATEMENT_3266_3266 --><g id="edge23" class="edge"><title>SEQUENCE_BLOCK_3266_3266-&gt;STATEMENT_3266_3266</title><path fill="none" stroke="black" d="M454.257,-2155.79C446.979,-2134.91 437.276,-2098.66 444,-2068 448.888,-2045.71 459.913,-2022.34 469.3,-2005.14"/><polygon fill="black" stroke="black" points="472.439,-2006.7 474.297,-1996.27 466.34,-2003.27 472.439,-2006.7"/><text text-anchor="middle" x="456.5" y="-2072.3" font-family="Times New Roman,serif" font-size="14.00">start</text></g><!-- STATEMENT_3266_3266&#45;&gt;SEQUENCE_BLOCK_3266_3266 --><g id="edge28" class="edge"><title>STATEMENT_3266_3266-&gt;SEQUENCE_BLOCK_3266_3266</title><path fill="none" stroke="black" d="M482.875,-1996.18C478.698,-2029.94 469.389,-2105.19 464.367,-2145.79"/><polygon fill="black" stroke="black" points="460.884,-2145.43 463.13,-2155.78 467.831,-2146.29 460.884,-2145.43"/><text text-anchor="middle" x="502.5" y="-2072.3" font-family="Times New Roman,serif" font-size="14.00">is_end_of</text></g><!-- STATEMENT_3268_3269 --><g id="node16" class="node" ng-click="svgclick($event, 1)"><title>STATEMENT_3268_3269</title><polygon fill="lightgrey" stroke="black" points="303.25,-2192 134.75,-2192 134.75,-2156 303.25,-2156 303.25,-2192"/><text text-anchor="middle" x="219" y="-2170.3" font-family="Times New Roman,serif" font-size="14.00">STATEMENT_3268_3269</text></g><!-- STATEMENT_3267_3267&#45;&gt;STATEMENT_3268_3269 --><g id="edge11" class="edge"><title>STATEMENT_3267_3267-&gt;STATEMENT_3268_3269</title><path fill="none" stroke="black" d="M95.9803,-2351.78C119.798,-2317.56 173.204,-2240.81 201.163,-2200.63"/><polygon fill="black" stroke="black" points="204.207,-2202.39 207.046,-2192.18 198.462,-2198.39 204.207,-2202.39"/><text text-anchor="middle" x="168" y="-2268.3" font-family="Times New Roman,serif" font-size="14.00">next</text></g><!-- STATEMENT_3270_3271 --><g id="node17" class="node" ng-click="svgclick($event, 1)"><title>STATEMENT_3270_3271</title><polygon fill="lightgrey" stroke="black" points="360.25,-1996 191.75,-1996 191.75,-1960 360.25,-1960 360.25,-1996"/><text text-anchor="middle" x="276" y="-1974.3" font-family="Times New Roman,serif" font-size="14.00">STATEMENT_3270_3271</text></g><!-- STATEMENT_3268_3269&#45;&gt;STATEMENT_3270_3271 --><g id="edge12" class="edge"><title>STATEMENT_3268_3269-&gt;STATEMENT_3270_3271</title><path fill="none" stroke="black" d="M224.058,-2155.78C234.009,-2121.92 256.192,-2046.42 268.093,-2005.91"/><polygon fill="black" stroke="black" points="271.492,-2006.76 270.953,-1996.18 264.776,-2004.79 271.492,-2006.76"/><text text-anchor="middle" x="262" y="-2072.3" font-family="Times New Roman,serif" font-size="14.00">next</text></g><!-- PERFORM_STATEMENT_3273_3273 --><g id="node18" class="node" ng-click="svgclick($event, 1)"><title>PERFORM_STATEMENT_3273_3273</title><polygon fill="lightgrey" stroke="black" points="525.25,-1800 282.75,-1800 282.75,-1764 525.25,-1764 525.25,-1800"/><text text-anchor="middle" x="404" y="-1778.3" font-family="Times New Roman,serif" font-size="14.00">PERFORM_STATEMENT_3273_3273</text></g><!-- STATEMENT_3270_3271&#45;&gt;PERFORM_STATEMENT_3273_3273 --><g id="edge13" class="edge"><title>STATEMENT_3270_3271-&gt;PERFORM_STATEMENT_3273_3273</title><path fill="none" stroke="black" d="M287.359,-1959.78C309.941,-1925.56 360.579,-1848.81 387.088,-1808.63"/><polygon fill="black" stroke="black" points="390.08,-1810.45 392.666,-1800.18 384.238,-1806.6 390.08,-1810.45"/><text text-anchor="middle" x="356" y="-1876.3" font-family="Times New Roman,serif" font-size="14.00">next</text></g><!-- CONDITION_BLOCK_3275_3281 --><g id="node19" class="node" ng-click="svgclick($event, 1)"><title>CONDITION_BLOCK_3275_3281</title><polygon fill="lightgrey" stroke="black" points="545,-1604 327,-1604 327,-1568 545,-1568 545,-1604"/><text text-anchor="middle" x="436" y="-1582.3" font-family="Times New Roman,serif" font-size="14.00">CONDITION_BLOCK_3275_3281</text></g><!-- PERFORM_STATEMENT_3273_3273&#45;&gt;CONDITION_BLOCK_3275_3281 --><g id="edge14" class="edge"><title>PERFORM_STATEMENT_3273_3273-&gt;CONDITION_BLOCK_3275_3281</title><path fill="none" stroke="black" d="M406.84,-1763.78C412.414,-1729.99 424.827,-1654.74 431.519,-1614.17"/><polygon fill="black" stroke="black" points="434.992,-1614.61 433.167,-1604.18 428.086,-1613.47 434.992,-1614.61"/><text text-anchor="middle" x="433" y="-1680.3" font-family="Times New Roman,serif" font-size="14.00">next</text></g><!-- CONDITION_3275_3275 --><g id="node20" class="node" ng-click="svgclick($event, 1)"><title>CONDITION_3275_3275</title><polygon fill="lightgrey" stroke="black" points="510,-1408 359.388,-1390 510,-1372 660.612,-1390 510,-1408"/><text text-anchor="middle" x="510" y="-1386.3" font-family="Times New Roman,serif" font-size="14.00">CONDITION_3275_3275</text></g><!-- CONDITION_BLOCK_3275_3281&#45;&gt;CONDITION_3275_3275 --><g id="edge24" class="edge"><title>CONDITION_BLOCK_3275_3281-&gt;CONDITION_3275_3275</title><path fill="none" stroke="black" d="M442.567,-1567.78C455.611,-1533.59 484.844,-1456.95 500.181,-1416.74"/><polygon fill="black" stroke="black" points="503.469,-1417.94 503.763,-1407.35 496.928,-1415.45 503.469,-1417.94"/><text text-anchor="middle" x="488.5" y="-1484.3" font-family="Times New Roman,serif" font-size="14.00">start</text></g><!-- EXIT_STATEMENT_3284_3284 --><g id="node28" class="node" ng-click="svgclick($event, 1)"><title>EXIT_STATEMENT_3284_3284</title><ellipse fill="lightgrey" stroke="black" cx="206" cy="-1390" rx="135.282" ry="18"/><text text-anchor="middle" x="206" y="-1386.3" font-family="Times New Roman,serif" font-size="14.00">EXIT_STATEMENT_3284_3284</text></g><!-- CONDITION_BLOCK_3275_3281&#45;&gt;EXIT_STATEMENT_3284_3284 --><g id="edge20" class="edge"><title>CONDITION_BLOCK_3275_3281-&gt;EXIT_STATEMENT_3284_3284</title><path fill="none" stroke="black" d="M415.589,-1567.78C374.311,-1532.97 280.866,-1454.15 233.961,-1414.58"/><polygon fill="black" stroke="black" points="235.937,-1411.67 226.037,-1407.9 231.424,-1417.02 235.937,-1411.67"/><text text-anchor="middle" x="340" y="-1484.3" font-family="Times New Roman,serif" font-size="14.00">next</text></g><!-- SEQUENCE_BLOCK_3276_3281 --><g id="node21" class="node" ng-click="svgclick($event, 1)"><title>SEQUENCE_BLOCK_3276_3281</title><polygon fill="lightgrey" stroke="black" points="747.25,-1212 534.75,-1212 534.75,-1176 747.25,-1176 747.25,-1212"/><text text-anchor="middle" x="641" y="-1190.3" font-family="Times New Roman,serif" font-size="14.00">SEQUENCE_BLOCK_3276_3281</text></g><!-- CONDITION_3275_3275&#45;&gt;SEQUENCE_BLOCK_3276_3281 --><g id="edge32" class="edge"><title>CONDITION_3275_3275-&gt;SEQUENCE_BLOCK_3276_3281</title><path fill="none" stroke="black" d="M520.72,-1373.12C543.378,-1339.57 596.302,-1261.19 623.77,-1220.52"/><polygon fill="black" stroke="black" points="626.688,-1222.45 629.384,-1212.2 620.887,-1218.53 626.688,-1222.45"/><text text-anchor="middle" x="591" y="-1288.3" font-family="Times New Roman,serif" font-size="14.00">true</text></g><!-- SEQUENCE_BLOCK_3276_3281&#45;&gt;CONDITION_BLOCK_3275_3281 --><g id="edge29" class="edge"><title>SEQUENCE_BLOCK_3276_3281-&gt;CONDITION_BLOCK_3275_3281</title><path fill="none" stroke="black" d="M649.453,-1212.09C666.771,-1249.68 701.989,-1341.51 669,-1408 631.144,-1484.3 542.929,-1536.58 486.558,-1563.57"/><polygon fill="black" stroke="black" points="485.019,-1560.43 477.454,-1567.85 487.994,-1566.77 485.019,-1560.43"/><text text-anchor="middle" x="708.5" y="-1386.3" font-family="Times New Roman,serif" font-size="14.00">is_end_of</text></g><!-- STATEMENT_3276_3276 --><g id="node22" class="node" ng-click="svgclick($event, 1)"><title>STATEMENT_3276_3276</title><polygon fill="lightgrey" stroke="black" points="635.25,-1016 466.75,-1016 466.75,-980 635.25,-980 635.25,-1016"/><text text-anchor="middle" x="551" y="-994.3" font-family="Times New Roman,serif" font-size="14.00">STATEMENT_3276_3276</text></g><!-- SEQUENCE_BLOCK_3276_3281&#45;&gt;STATEMENT_3276_3276 --><g id="edge25" class="edge"><title>SEQUENCE_BLOCK_3276_3281-&gt;STATEMENT_3276_3276</title><path fill="none" stroke="black" d="M633.013,-1175.78C617.235,-1141.77 581.978,-1065.78 563.246,-1025.4"/><polygon fill="black" stroke="black" points="566.352,-1023.78 558.969,-1016.18 560.002,-1026.72 566.352,-1023.78"/><text text-anchor="middle" x="611.5" y="-1092.3" font-family="Times New Roman,serif" font-size="14.00">start</text></g><!-- STATEMENT_3277_3277 --><g id="node23" class="node" ng-click="svgclick($event, 1)"><title>STATEMENT_3277_3277</title><polygon fill="lightgrey" stroke="black" points="629.25,-820 460.75,-820 460.75,-784 629.25,-784 629.25,-820"/><text text-anchor="middle" x="545" y="-798.3" font-family="Times New Roman,serif" font-size="14.00">STATEMENT_3277_3277</text></g><!-- STATEMENT_3276_3276&#45;&gt;STATEMENT_3277_3277 --><g id="edge15" class="edge"><title>STATEMENT_3276_3276-&gt;STATEMENT_3277_3277</title><path fill="none" stroke="black" d="M550.468,-979.784C549.425,-946.061 547.105,-871.058 545.848,-830.428"/><polygon fill="black" stroke="black" points="549.339,-830.065 545.531,-820.178 542.342,-830.281 549.339,-830.065"/><text text-anchor="middle" x="561" y="-896.3" font-family="Times New Roman,serif" font-size="14.00">next</text></g><!-- STATEMENT_3278_3278 --><g id="node24" class="node" ng-click="svgclick($event, 1)"><title>STATEMENT_3278_3278</title><polygon fill="lightgrey" stroke="black" points="628.25,-624 459.75,-624 459.75,-588 628.25,-588 628.25,-624"/><text text-anchor="middle" x="544" y="-602.3" font-family="Times New Roman,serif" font-size="14.00">STATEMENT_3278_3278</text></g><!-- STATEMENT_3277_3277&#45;&gt;STATEMENT_3278_3278 --><g id="edge16" class="edge"><title>STATEMENT_3277_3277-&gt;STATEMENT_3278_3278</title><path fill="none" stroke="black" d="M544.911,-783.784C544.737,-750.061 544.351,-675.058 544.141,-634.428"/><polygon fill="black" stroke="black" points="547.64,-634.159 544.089,-624.178 540.64,-634.196 547.64,-634.159"/><text text-anchor="middle" x="557" y="-700.3" font-family="Times New Roman,serif" font-size="14.00">next</text></g><!-- STATEMENT_3279_3279 --><g id="node25" class="node" ng-click="svgclick($event, 1)"><title>STATEMENT_3279_3279</title><polygon fill="lightgrey" stroke="black" points="634.25,-428 465.75,-428 465.75,-392 634.25,-392 634.25,-428"/><text text-anchor="middle" x="550" y="-406.3" font-family="Times New Roman,serif" font-size="14.00">STATEMENT_3279_3279</text></g><!-- STATEMENT_3278_3278&#45;&gt;STATEMENT_3279_3279 --><g id="edge17" class="edge"><title>STATEMENT_3278_3278-&gt;STATEMENT_3279_3279</title><path fill="none" stroke="black" d="M544.532,-587.784C545.575,-554.061 547.895,-479.058 549.152,-438.428"/><polygon fill="black" stroke="black" points="552.658,-438.281 549.469,-428.178 545.661,-438.065 552.658,-438.281"/><text text-anchor="middle" x="560" y="-504.3" font-family="Times New Roman,serif" font-size="14.00">next</text></g><!-- STATEMENT_3280_3280 --><g id="node26" class="node" ng-click="svgclick($event, 1)"><title>STATEMENT_3280_3280</title><polygon fill="lightgrey" stroke="black" points="636.25,-232 467.75,-232 467.75,-196 636.25,-196 636.25,-232"/><text text-anchor="middle" x="552" y="-210.3" font-family="Times New Roman,serif" font-size="14.00">STATEMENT_3280_3280</text></g><!-- STATEMENT_3279_3279&#45;&gt;STATEMENT_3280_3280 --><g id="edge18" class="edge"><title>STATEMENT_3279_3279-&gt;STATEMENT_3280_3280</title><path fill="none" stroke="black" d="M550.177,-391.784C550.525,-358.061 551.298,-283.058 551.717,-242.428"/><polygon fill="black" stroke="black" points="555.22,-242.213 551.823,-232.178 548.22,-242.141 555.22,-242.213"/><text text-anchor="middle" x="564" y="-308.3" font-family="Times New Roman,serif" font-size="14.00">next</text></g><!-- GOTO_STATEMENT_3281_3281 --><g id="node27" class="node" ng-click="svgclick($event, 1)"><title>GOTO_STATEMENT_3281_3281</title><polygon fill="lightgrey" stroke="black" points="735.25,-36 518.75,-36 518.75,-0 735.25,-0 735.25,-36"/><text text-anchor="middle" x="627" y="-14.3" font-family="Times New Roman,serif" font-size="14.00">GOTO_STATEMENT_3281_3281</text></g><!-- STATEMENT_3280_3280&#45;&gt;GOTO_STATEMENT_3281_3281 --><g id="edge19" class="edge"><title>STATEMENT_3280_3280-&gt;GOTO_STATEMENT_3281_3281</title><path fill="none" stroke="black" d="M558.656,-195.784C571.776,-161.845 601.06,-86.097 616.696,-45.6525"/><polygon fill="black" stroke="black" points="620.018,-46.767 620.359,-36.1776 613.489,-44.2428 620.018,-46.767"/><text text-anchor="middle" x="604" y="-112.3" font-family="Times New Roman,serif" font-size="14.00">next</text></g><!-- GOTO_STATEMENT_3281_3281&#45;&gt;SEQUENCE_BLOCK_3276_3281 --><g id="edge30" class="edge"><title>GOTO_STATEMENT_3281_3281-&gt;SEQUENCE_BLOCK_3276_3281</title><path fill="none" stroke="black" d="M632.689,-36.1687C643.29,-69.7363 665,-146.59 665,-213 665,-999 665,-999 665,-999 665,-1058.92 653.583,-1128.48 646.498,-1165.87"/><polygon fill="black" stroke="black" points="643.008,-1165.48 644.541,-1175.96 649.88,-1166.81 643.008,-1165.48"/><text text-anchor="middle" x="693.5" y="-602.3" font-family="Times New Roman,serif" font-size="14.00">is_end_of</text></g><!-- EXIT_STATEMENT_3284_3284&#45;&gt;methodBody_3256_3284 --><g id="edge26" class="edge"><title>EXIT_STATEMENT_3284_3284-&gt;methodBody_3256_3284</title><path fill="none" stroke="black" d="M289.197,-1404.18C351.854,-1416.77 438.096,-1439.92 505,-1480 561.346,-1513.76 609,-1519.32 609,-1585 609,-4331 609,-4331 609,-4331 609,-4391.89 589.429,-4461.25 577.33,-4498.3"/><polygon fill="black" stroke="black" points="573.984,-4497.27 574.138,-4507.87 580.624,-4499.49 573.984,-4497.27"/><text text-anchor="middle" x="637.5" y="-2954.3" font-family="Times New Roman,serif" font-size="14.00">is_end_of</text></g></g></svg>